<svg width="28" height="21" viewBox="0 0 28 21" fill="none" xmlns="http://www.w3.org/2000/svg">
<path d="M26.8358 11.2789H1.16677C0.522715 11.2789 0 10.7562 0 10.1121C0 9.46809 0.522715 8.94537 1.16677 8.94537H26.8358C27.4799 8.94537 28.0026 9.46809 28.0026 10.1121C28.0026 10.7562 27.4799 11.2789 26.8358 11.2789ZM26.8358 2.33355H1.16677C0.522715 2.33355 0 1.81083 0 1.16677C0 0.522715 0.522715 0 1.16677 0H26.8358C27.4799 0 28.0026 0.522715 28.0026 1.16677C28.0026 1.81083 27.4799 2.33355 26.8358 2.33355ZM26.8358 20.224H1.16677C0.522715 20.224 0 19.7013 0 19.0572C0 18.4132 0.522715 17.8904 1.16677 17.8904H26.8358C27.4799 17.8904 28.0026 18.4132 28.0026 19.0572C28.0026 19.7013 27.4799 20.224 26.8358 20.224Z" fill="white"/>
</svg>
